<svg width="24" height="24" viewBox="0 0 24 24" xmlns="http://www.w3.org/2000/svg">
    <g fill="none" fill-rule="evenodd">
        <path d="M0 0h24v24H0z"/>
        <path d="M12 3a9 9 0 1 1 0 18 9 9 0 0 1 0-18zm.6 12h-1.7v1.7h1.7V15zm-.536-8c-.246 0-.496.023-.752.068a5.807 5.807 0 0 0-.755.188 7.083 7.083 0 0 0-1.357.598l.697 1.511c.388-.191.762-.353 1.125-.485.362-.132.7-.198 1.015-.198.36 0 .628.084.803.253a.853.853 0 0 1 .263.642c0 .169-.018.317-.054.444-.037.128-.096.25-.178.366-.082.116-.19.234-.321.352a9.9 9.9 0 0 1-.486.404c-.218.173-.405.34-.56.502a2.582 2.582 0 0 0-.38.499c-.098.17-.17.351-.218.54-.048.19-.072.4-.072.632v.506h1.804v-.41c0-.146.013-.272.038-.38a.925.925 0 0 1 .14-.31c.069-.1.163-.207.284-.318.12-.112.277-.243.468-.393.25-.2.47-.391.66-.571.189-.18.346-.367.472-.56.125-.194.22-.404.283-.63a2.83 2.83 0 0 0 .096-.769c0-.391-.07-.74-.209-1.045a2.155 2.155 0 0 0-.598-.78 2.679 2.679 0 0 0-.95-.489A4.388 4.388 0 0 0 12.064 7z" fill="#384040"/>
    </g>
</svg>
