<svg width="24" height="24" viewBox="0 0 24 24" xmlns="http://www.w3.org/2000/svg">
    <g fill="none" fill-rule="evenodd">
        <path d="M0 0h24v24H0z"/>
        <path d="M18.575 19c.127 0 .24-.049.337-.146a.447.447 0 0 0 .132-.33.447.447 0 0 0-.132-.33l-4.556-4.585c.42-.507.752-1.081.997-1.72a5.64 5.64 0 0 0 .366-2.03c0-.81-.154-1.572-.462-2.285a5.856 5.856 0 0 0-1.26-1.86A6.006 6.006 0 0 0 12.13 4.46 5.67 5.67 0 0 0 9.86 4c-.811 0-1.573.154-2.286.461a6.006 6.006 0 0 0-1.867 1.253 5.757 5.757 0 0 0-1.253 1.86A5.785 5.785 0 0 0 4 9.86c0 .81.151 1.573.454 2.286.303.712.72 1.333 1.253 1.86a6.006 6.006 0 0 0 1.867 1.252 5.706 5.706 0 0 0 2.285.462c.733 0 1.426-.127 2.08-.381a5.934 5.934 0 0 0 1.758-1.055l4.541 4.57c.098.098.21.147.337.147zM9.86 14.796c-.683 0-1.325-.13-1.926-.388a4.917 4.917 0 0 1-1.567-1.062 5.091 5.091 0 0 1-1.055-1.568 4.763 4.763 0 0 1-.388-1.919c0-.683.13-1.323.388-1.919a5.091 5.091 0 0 1 1.055-1.567c.444-.45.967-.803 1.567-1.062a4.815 4.815 0 0 1 1.926-.388c.674 0 1.311.13 1.912.388.6.259 1.123.613 1.567 1.062.445.45.796.972 1.055 1.567.259.596.388 1.236.388 1.92 0 .683-.13 1.323-.388 1.918a5.091 5.091 0 0 1-1.055 1.568c-.444.449-.966.803-1.567 1.062a4.78 4.78 0 0 1-1.912.388z" fill="#ABB1B1"/>
    </g>
</svg>
